# xmcd
#
# Track frame offsets: 
#        150
#        41856
#        57553
#        100940
#        144529
#        175865
#        198661
#        236762
#        269910
#        291633
#        325189
#
# Disc length: 4791 seconds
#
# Revision: 1
# Processed by: cddbd v1.5.2PL0 Copyright (c) Steve Scherf et al.
# Submitted via: ExactAudioCopyFreeDBPlugin 1.0
#
DISCID=bb12b50b
DTITLE=Wes Montgomery - Full House
DYEAR=2007
DGENRE=Blues
TTITLE0=Full House
TTITLE1=I've Grown Accustomed to Her Face
TTITLE2=Blue 'n' Boogie
TTITLE3=Cariba (take 2)
TTITLE4=Come Rain or Come Shine (take 2)
TTITLE5=S.O.S. (take 3)
TTITLE6=Cariba (take 1)
TTITLE7=Come Rain or Come Shine (take 1)
TTITLE8=S.O.S. (take 2)
TTITLE9=Born to Be Blue (take 1)
TTITLE10=Born to Be Blue (take 2)
EXTD=recorded 'live' at Tsubo - Berkeley, California
EXTT0=
EXTT1=
EXTT2=
EXTT3=
EXTT4=
EXTT5=
EXTT6=
EXTT7=
EXTT8=
EXTT9=
EXTT10=
PLAYORDER=
